Coordinates
version=1
nRows=20
nColumns=38
inDegrees=no

Units are S.I. units (second, meters, Newtons, ...)
If the header above contains a line with 'inDegrees', this indicates whether rotational values are in degrees (yes) or radians (no).

endheader
time	pelvis_tilt	pelvis_list	pelvis_rotation	pelvis_tx	pelvis_ty	pelvis_tz	hip_flexion_r	hip_adduction_r	hip_rotation_r	knee_angle_r	ankle_angle_r	subtalar_angle_r	mtp_angle_r	hip_flexion_l	hip_adduction_l	hip_rotation_l	knee_angle_l	ankle_angle_l	subtalar_angle_l	mtp_angle_l	lumbar_extension	lumbar_bending	lumbar_rotation	arm_flex_r	arm_add_r	arm_rot_r	elbow_flex_r	pro_sup_r	wrist_flex_r	wrist_dev_r	arm_flex_l	arm_add_l	arm_rot_l	elbow_flex_l	pro_sup_l	wrist_flex_l	wrist_dev_l
35	-0.0911083	1.39217	1.69252	0.647029	0.253923	0.921254	0.770286	-0.0767887	0.0149881	1.00618	-0.0958568	0	0	0.666949	-0.16829	-0.211085	0.962339	-0.110724	0	0	-0.895496	-0.0127128	0.0355039	0.936042	-0.566738	0.665289	0.690742	0.373635	0	0	0.979225	-0.543905	0.797433	0.69874	0.673439	0	0
35.01	-0.0861547	1.38182	1.68707	0.647382	0.25242	0.915127	0.796072	-0.076392	0.0173201	1.02844	-0.0877771	0	0	0.694495	-0.168651	-0.200773	0.990026	-0.100953	0	0	-0.903733	-0.0166165	0.0381017	0.950111	-0.573925	0.64648	0.703459	0.384221	0	0	0.997081	-0.54504	0.780496	0.710298	0.679004	0	0
35.02	-0.0865997	1.37092	1.68657	0.647757	0.250982	0.908965	0.822056	-0.0769986	0.01987	1.05019	-0.0795042	0	0	0.721415	-0.167849	-0.19135	1.01604	-0.091389	0	0	-0.910901	-0.0217836	0.0398572	0.962837	-0.580272	0.62503	0.716656	0.39774	0	0	1.01505	-0.545807	0.763733	0.721866	0.686966	0	0
35.03	-0.0918342	1.35951	1.68991	0.648212	0.249564	0.902772	0.848354	-0.0774788	0.0239557	1.07135	-0.0713004	0	0	0.747854	-0.166641	-0.183781	1.04079	-0.0822772	0	0	-0.917018	-0.0288516	0.0413376	0.973997	-0.586294	0.601089	0.730699	0.41335	0	0	1.03384	-0.545925	0.748442	0.733199	0.695805	0	0
35.04	-0.099378	1.34829	1.69492	0.64872	0.248227	0.896668	0.874273	-0.0776522	0.0291196	1.09213	-0.0636575	0	0	0.773288	-0.165607	-0.177959	1.06455	-0.0738581	0	0	-0.922978	-0.0368749	0.0421331	0.984401	-0.591584	0.575811	0.74563	0.429777	0	0	1.05251	-0.546248	0.73346	0.745206	0.703505	0	0
35.05	-0.108354	1.33806	1.70116	0.649187	0.246981	0.89078	0.898877	-0.0778959	0.0344064	1.1124	-0.0569622	0	0	0.797191	-0.164899	-0.173849	1.08786	-0.0666781	0	0	-0.929499	-0.0450911	0.0420741	0.994952	-0.596174	0.551175	0.760758	0.445426	0	0	1.07128	-0.546444	0.719547	0.757237	0.709172	0	0
35.06	-0.116329	1.32837	1.70652	0.649581	0.24584	0.885127	0.922503	-0.0781579	0.039437	1.13201	-0.0506661	0	0	0.820175	-0.164832	-0.170859	1.11065	-0.0604047	0	0	-0.936223	-0.0529251	0.0414726	1.00496	-0.599671	0.525054	0.77617	0.463044	0	0	1.08951	-0.546452	0.70535	0.769572	0.711221	0	0
35.07	-0.12169	1.31932	1.70958	0.649907	0.244827	0.879723	0.944812	-0.0783608	0.0436955	1.15079	-0.0448708	0	0	0.842186	-0.165188	-0.16779	1.13271	-0.0546051	0	0	-0.943136	-0.0599744	0.040657	1.01459	-0.602295	0.498408	0.791764	0.480774	0	0	1.10675	-0.546177	0.690526	0.782351	0.712725	0	0
35.08	-0.123215	1.31054	1.70923	0.650162	0.243872	0.874447	0.965982	-0.0782605	0.0471136	1.16813	-0.0398612	0	0	0.863788	-0.165985	-0.164003	1.15391	-0.0493284	0	0	-0.949497	-0.0658487	0.0398344	1.02467	-0.604725	0.474626	0.807329	0.495123	0	0	1.12329	-0.54608	0.676553	0.795734	0.712443	0	0
35.09	-0.120872	1.3004	1.70556	0.650286	0.242942	0.869058	0.98821	-0.0780453	0.0495941	1.1846	-0.0347337	0	0	0.886859	-0.166915	-0.159508	1.17434	-0.0437252	0	0	-0.953323	-0.070417	0.0391197	1.03386	-0.60672	0.451202	0.823189	0.510285	0	0	1.1379	-0.545573	0.660899	0.809516	0.712311	0	0
35.1	-0.116714	1.28979	1.70059	0.650358	0.242053	0.863589	1.01081	-0.0780662	0.0509786	1.20094	-0.0297464	0	0	0.910237	-0.168172	-0.155307	1.19413	-0.0378802	0	0	-0.95526	-0.0741799	0.0382949	1.04239	-0.608406	0.4296	0.838895	0.524307	0	0	1.15112	-0.544933	0.645338	0.823277	0.713985	0	0
35.11	-0.113457	1.27858	1.69696	0.650395	0.241186	0.858038	1.03382	-0.0786949	0.0520221	1.21719	-0.0245004	0	0	0.933809	-0.168884	-0.151751	1.21314	-0.0318257	0	0	-0.955245	-0.0776933	0.0368075	1.05013	-0.6097	0.409693	0.854278	0.538087	0	0	1.16367	-0.54447	0.63204	0.836685	0.718802	0	0
35.12	-0.111596	1.26731	1.69541	0.650323	0.24035	0.852517	1.05662	-0.0804573	0.0524074	1.23341	-0.0189547	0	0	0.956927	-0.168505	-0.148564	1.23119	-0.0260512	0	0	-0.954211	-0.0807875	0.0343192	1.05747	-0.610636	0.391491	0.869201	0.551407	0	0	1.17567	-0.544732	0.620111	0.850744	0.723136	0	0
35.13	-0.110497	1.25654	1.69539	0.650115	0.239526	0.847105	1.07844	-0.0835177	0.0519442	1.24915	-0.0132491	0	0	0.979218	-0.167119	-0.145326	1.24862	-0.0203871	0	0	-0.952837	-0.0831249	0.0309179	1.06477	-0.611217	0.375012	0.883597	0.563603	0	0	1.18711	-0.545404	0.608888	0.865253	0.726671	0	0
35.14	-0.110471	1.24496	1.69638	0.649967	0.238742	0.841724	1.10107	-0.0871476	0.0513024	1.26484	-0.00759753	0	0	1.00192	-0.165531	-0.142536	1.26549	-0.0148922	0	0	-0.950166	-0.0859376	0.0265847	1.0709	-0.610632	0.357883	0.897921	0.575414	0	0	1.19762	-0.547227	0.598019	0.881245	0.730482	0	0
35.15	-0.112206	1.23465	1.69842	0.649945	0.238003	0.836673	1.12203	-0.089899	0.0520852	1.28005	-0.00327837	0	0	1.0226	-0.164529	-0.140826	1.28167	-0.0106498	0	0	-0.948595	-0.0895963	0.0219389	1.07777	-0.609945	0.343665	0.911079	0.584125	0	0	1.20917	-0.549918	0.590092	0.89681	0.734499	0	0
35.16	-0.113642	1.22349	1.69933	0.650061	0.23727	0.83168	1.14377	-0.090716	0.0550331	1.29476	0.000905181	0	0	1.04416	-0.164444	-0.139361	1.29781	-0.00671772	0	0	-0.945731	-0.0938731	0.0175912	1.0833	-0.608422	0.327871	0.924645	0.591462	0	0	1.21998	-0.552972	0.582193	0.912574	0.741897	0	0
35.17	-0.114513	1.21487	1.69891	0.650256	0.236563	0.827097	1.16216	-0.0899599	0.0586881	1.30837	0.00398431	0	0	1.06257	-0.165757	-0.138284	1.3133	-0.00358025	0	0	-0.944791	-0.0981571	0.0143154	1.0902	-0.607788	0.316165	0.936861	0.59536	0	0	1.23224	-0.555677	0.577597	0.925979	0.749583	0	0
35.18	-0.113713	1.20613	1.69611	0.650559	0.235852	0.822595	1.18043	-0.088056	0.0616853	1.32101	0.00692343	0	0	1.08092	-0.168239	-0.137067	1.32838	-0.000298643	0	0	-0.943034	-0.102386	0.0119383	1.09692	-0.6072	0.305734	0.948828	0.598213	0	0	1.2439	-0.558582	0.573553	0.938715	0.758341	0	0
35.19	-0.113222	1.19752	1.69342	0.650778	0.235176	0.818268	1.19809	-0.0867299	0.0636888	1.33273	0.00986689	0	0	1.09826	-0.170695	-0.136438	1.34218	0.00348779	0	0	-0.941386	-0.106196	0.00955297	1.10385	-0.606894	0.296753	0.96073	0.601	0	0	1.25515	-0.561912	0.570076	0.951361	0.767143	0	0
